<?xml version="1.0" standalone="no"?>
<!DOCTYPE svg PUBLIC "-//W3C//DTD SVG 20010904//EN"
 "http://www.w3.org/TR/2001/REC-SVG-20010904/DTD/svg10.dtd">
<svg version="1.0" xmlns="http://www.w3.org/2000/svg"
 width="180.000000pt" height="180.000000pt" viewBox="0 0 180.000000 180.000000"
 preserveAspectRatio="xMidYMid meet">

<g transform="translate(0.000000,180.000000) scale(0.100000,-0.100000)"
fill="#000000" stroke="none">
<path d="M812 1738 c-16 -35 -81 -176 -146 -314 -64 -138 -116 -254 -116 -258
0 -3 24 -6 53 -6 l54 0 28 65 27 66 137 -3 136 -3 29 -62 30 -63 53 0 c29 0
53 4 53 8 0 19 -288 626 -298 630 -6 2 -24 -25 -40 -60z m87 -254 c23 -51 41
-97 41 -103 0 -11 -171 -17 -182 -6 -3 3 15 52 41 110 25 57 49 101 53 97 3
-4 25 -48 47 -98z"/>
<path d="M845 1500 c3 -5 11 -10 16 -10 6 0 7 5 4 10 -3 6 -11 10 -16 10 -6 0
-7 -4 -4 -10z"/>
<path d="M821 1487 c2 -2 20 -14 39 -26 l35 -23 -30 26 c-16 14 -34 26 -39 26
-5 0 -7 -1 -5 -3z"/>
<path d="M820 1457 c0 -2 19 -17 43 -32 23 -16 37 -22 30 -14 -12 15 -73 53
-73 46z"/>
<path d="M815 1425 c11 -9 29 -21 40 -26 l20 -10 -20 16 c-11 9 -29 21 -40 26
l-20 10 20 -16z"/>
<path d="M935 1705 c11 -9 29 -21 40 -26 l20 -10 -20 16 c-11 9 -29 21 -40 26
l-20 10 20 -16z"/>
<path d="M950 1666 c0 -2 14 -14 30 -26 17 -12 30 -19 30 -16 0 2 -13 14 -30
26 -16 12 -30 19 -30 16z"/>
<path d="M990 1601 c14 -11 30 -21 35 -21 11 0 -7 14 -40 31 -13 7 -12 3 5
-10z"/>
<path d="M990 1576 c0 -2 14 -14 30 -26 17 -12 30 -19 30 -16 0 2 -13 14 -30
26 -16 12 -30 19 -30 16z"/>
<path d="M1025 1515 c11 -9 29 -21 40 -26 l20 -10 -20 16 c-11 9 -29 21 -40
26 l-20 10 20 -16z"/>
<path d="M1031 1477 c2 -2 20 -14 39 -26 l35 -23 -30 26 c-16 14 -34 26 -39
26 -5 0 -7 -1 -5 -3z"/>
<path d="M1050 1435 c0 -7 61 -47 66 -42 3 2 -11 14 -31 25 -19 12 -35 20 -35
17z"/>
<path d="M1080 1383 c0 -5 14 -17 30 -26 17 -10 30 -16 30 -13 0 2 -13 14 -30
26 -16 12 -30 18 -30 13z"/>
<path d="M1120 1321 c14 -11 30 -21 35 -21 11 0 -7 14 -40 31 -13 7 -12 3 5
-10z"/>
<path d="M1130 1280 c35 -24 54 -31 30 -11 -14 11 -29 21 -35 21 -5 0 -3 -5 5
-10z"/>
<path d="M730 1257 c0 -2 19 -17 43 -32 23 -16 37 -22 30 -14 -12 15 -73 53
-73 46z"/>
<path d="M800 1241 c14 -11 30 -21 35 -21 11 0 -7 14 -40 31 -13 7 -12 3 5
-10z"/>
<path d="M850 1241 c14 -11 30 -21 35 -21 11 0 -7 14 -40 31 -13 7 -12 3 5
-10z"/>
<path d="M895 1240 c17 -11 35 -20 40 -20 6 0 -5 9 -23 20 -42 26 -56 26 -17
0z"/>
<path d="M945 1240 c17 -11 35 -20 40 -20 6 0 -5 9 -23 20 -42 26 -56 26 -17
0z"/>
<path d="M1155 1235 c11 -9 29 -21 40 -26 l20 -10 -20 16 c-11 9 -29 21 -40
26 l-20 10 20 -16z"/>
<path d="M710 1237 c0 -6 77 -57 87 -57 4 0 -1 6 -12 13 -48 33 -75 49 -75 44z"/>
<path d="M715 1197 c48 -33 75 -49 75 -44 0 6 -77 57 -87 57 -4 0 1 -6 12 -13z"/>
<path d="M1161 1197 c2 -2 20 -14 39 -26 l35 -23 -30 26 c-16 14 -34 26 -39
26 -5 0 -7 -1 -5 -3z"/>
<path d="M690 1187 c0 -9 72 -57 85 -57 5 0 1 6 -10 13 -50 35 -75 49 -75 44z"/>
<path d="M695 1147 c48 -33 75 -49 75 -44 0 6 -77 57 -87 57 -4 0 1 -6 12 -13z"/>
<path d="M1210 1131 c14 -11 30 -21 35 -21 11 0 -7 14 -40 31 -13 7 -12 3 5
-10z"/>
<path d="M642 1115 c20 -14 40 -25 45 -25 4 0 -9 11 -29 25 -20 14 -40 25 -45
25 -4 0 9 -11 29 -25z"/>
<path d="M692 1115 c20 -14 40 -25 45 -25 4 0 -9 11 -29 25 -20 14 -40 25 -45
25 -4 0 9 -11 29 -25z"/>
<path d="M1185 1116 c17 -14 34 -26 39 -26 11 0 11 0 -34 29 l-35 23 30 -26z"/>
<path d="M1140 1116 c0 -3 9 -10 20 -16 11 -6 20 -8 20 -6 0 3 -9 10 -20 16
-11 6 -20 8 -20 6z"/>
<path d="M477 934 c-4 -4 -7 -20 -7 -35 0 -25 4 -28 43 -34 23 -3 215 -4 427
-3 l385 3 0 30 0 30 -87 3 c-56 2 -88 -1 -88 -8 0 -5 5 -10 11 -10 5 0 7 -5 4
-10 -4 -7 -13 -3 -24 9 -17 19 -34 20 -337 26 -176 3 -323 3 -327 -1z m381
-24 c7 0 10 -4 7 -10 -3 -5 -15 -10 -26 -10 -11 0 -18 4 -14 9 3 5 0 11 -7 14
-7 2 -4 3 7 1 11 -2 26 -4 33 -4z m262 -17 c0 -10 -6 -13 -16 -9 -9 3 -18 6
-20 6 -2 0 -4 6 -4 14 0 9 7 12 20 9 11 -3 20 -12 20 -20z m-102 0 c-4 -22
-22 -20 -26 1 -2 10 3 16 13 16 10 0 15 -7 13 -17z m186 2 c-4 -8 -10 -15 -15
-15 -4 0 -6 7 -3 15 4 8 10 15 15 15 4 0 6 -7 3 -15z m-399 -5 c-3 -5 -11 -10
-16 -10 -6 0 -7 5 -4 10 3 6 11 10 16 10 6 0 7 -4 4 -10z m245 0 c0 -5 -4 -10
-10 -10 -5 0 -10 5 -10 10 0 6 5 10 10 10 6 0 10 -4 10 -10z"/>
<path d="M764 690 c-162 -64 -245 -250 -185 -412 27 -71 85 -132 159 -166 51
-24 69 -27 167 -27 94 0 119 4 170 25 l60 25 3 138 3 137 -136 0 -135 0 0 -50
0 -50 85 0 85 0 0 -54 c0 -52 -1 -55 -31 -65 -51 -17 -168 -13 -214 8 -165 74
-164 316 0 392 49 23 162 25 220 4 22 -8 44 -15 48 -15 8 0 37 61 37 79 0 21
-88 44 -185 47 -83 4 -109 1 -151 -16z"/>
<path d="M1127 619 c12 -15 73 -53 73 -46 0 2 -19 17 -42 32 -24 16 -38 22
-31 14z"/>
<path d="M1125 584 c36 -28 61 -36 30 -10 -16 14 -34 26 -40 26 -5 -1 -1 -8
10 -16z"/>
<path d="M840 587 c0 -2 19 -17 43 -32 23 -16 37 -22 30 -14 -12 15 -73 53
-73 46z"/>
<path d="M912 565 c20 -14 40 -25 45 -25 4 0 -9 11 -29 25 -20 14 -40 25 -45
25 -4 0 9 -11 29 -25z"/>
<path d="M940 580 c35 -24 54 -31 30 -11 -14 11 -29 21 -35 21 -5 0 -3 -5 5
-10z"/>
<path d="M817 569 c12 -15 73 -53 73 -46 0 2 -19 17 -42 32 -24 16 -38 22 -31
14z"/>
<path d="M1000 577 c0 -3 12 -12 26 -22 15 -9 23 -12 20 -6 -7 11 -46 35 -46
28z"/>
<path d="M1105 567 c48 -33 75 -49 75 -44 0 6 -77 57 -87 57 -4 0 1 -6 12 -13z"/>
<path d="M767 539 c12 -15 73 -53 73 -46 0 2 -19 17 -42 32 -24 16 -38 22 -31
14z"/>
<path d="M1097 539 c7 -7 15 -10 18 -7 3 3 -2 9 -12 12 -14 6 -15 5 -6 -5z"/>
<path d="M740 527 c0 -2 19 -17 43 -32 23 -16 37 -22 30 -14 -12 15 -73 53
-73 46z"/>
<path d="M720 507 c0 -6 77 -57 87 -57 4 0 -1 6 -12 13 -48 33 -75 49 -75 44z"/>
<path d="M742 455 c20 -14 40 -25 45 -25 4 0 -9 11 -29 25 -20 14 -40 25 -45
25 -4 0 9 -11 29 -25z"/>
<path d="M700 457 c0 -2 19 -17 43 -32 23 -16 37 -22 30 -14 -12 15 -73 53
-73 46z"/>
<path d="M707 419 c12 -15 73 -53 73 -46 0 2 -19 17 -42 32 -24 16 -38 22 -31
14z"/>
<path d="M747 359 c7 -7 15 -10 18 -7 3 3 -2 9 -12 12 -14 6 -15 5 -6 -5z"/>
<path d="M1185 355 c11 -9 29 -21 40 -26 l20 -10 -20 16 c-11 9 -29 21 -40 26
l-20 10 20 -16z"/>
<path d="M701 357 c2 -2 20 -14 39 -26 l35 -23 -30 26 c-16 14 -34 26 -39 26
-5 0 -7 -1 -5 -3z"/>
<path d="M1185 325 c11 -9 29 -21 40 -26 l20 -10 -20 16 c-11 9 -29 21 -40 26
l-20 10 20 -16z"/>
<path d="M730 305 c19 -14 36 -25 39 -25 10 1 -53 50 -63 50 -6 0 5 -11 24
-25z"/>
<path d="M1195 286 c17 -14 34 -26 39 -26 11 0 11 0 -34 29 l-35 23 30 -26z"/>
<path d="M960 280 c35 -24 54 -31 30 -11 -14 11 -29 21 -35 21 -5 0 -3 -5 5
-10z"/>
<path d="M730 277 c0 -3 12 -12 26 -22 15 -9 23 -12 20 -6 -7 11 -46 35 -46
28z"/>
<path d="M1160 276 c0 -5 69 -46 78 -46 4 0 -10 11 -30 25 -36 24 -48 30 -48
21z"/>
<path d="M1160 247 c0 -2 19 -17 43 -32 23 -16 37 -22 30 -14 -12 15 -73 53
-73 46z"/>
<path d="M1160 217 c0 -2 19 -17 43 -32 23 -16 37 -22 30 -14 -12 15 -73 53
-73 46z"/>
<path d="M1167 179 c12 -15 73 -53 73 -46 0 2 -19 17 -42 32 -24 16 -38 22
-31 14z"/>
<path d="M1195 126 c17 -14 34 -26 39 -26 11 0 11 0 -34 29 l-35 23 30 -26z"/>
<path d="M1150 127 c0 -2 19 -17 43 -32 23 -16 37 -22 30 -14 -12 15 -73 53
-73 46z"/>
<path d="M1130 106 c0 -7 71 -49 75 -44 2 2 -14 14 -36 26 -21 12 -39 21 -39
18z"/>
<path d="M1100 97 c0 -2 19 -17 43 -32 23 -16 37 -22 30 -14 -12 15 -73 53
-73 46z"/>
<path d="M1074 81 c7 -11 46 -35 46 -28 0 3 -12 12 -26 22 -15 9 -23 12 -20 6z"/>
<path d="M1065 55 c11 -9 29 -21 40 -26 l20 -10 -20 16 c-11 9 -29 21 -40 26
l-20 10 20 -16z"/>
<path d="M820 56 c0 -2 7 -7 16 -10 8 -3 12 -2 9 4 -6 10 -25 14 -25 6z"/>
<path d="M995 36 c17 -14 35 -26 40 -26 11 1 -20 27 -50 41 -11 6 -6 -1 10
-15z"/>
<path d="M1011 57 c2 -2 20 -14 39 -26 l35 -23 -30 26 c-16 14 -34 26 -39 26
-5 0 -7 -1 -5 -3z"/>
<path d="M890 40 c8 -6 24 -15 35 -21 16 -8 15 -6 -4 10 -13 12 -28 21 -35 21
-6 0 -4 -5 4 -10z"/>
<path d="M940 40 c35 -24 54 -31 30 -11 -14 11 -29 21 -35 21 -5 0 -3 -5 5
-10z"/>
</g>
</svg>
